<svg width="55" height="56" viewBox="0 0 55 56" fill="none" xmlns="http://www.w3.org/2000/svg">
<g filter="url(#filter0_dii_3_6)">
<rect x="0.5" y="0.5" width="54" height="54" rx="10.5" fill="url(#paint0_linear_3_6)"/>
<g filter="url(#filter1_d_3_6)">
<path fill-rule="evenodd" clip-rule="evenodd" d="M17 21.5C17 20.6716 17.6716 20 18.5 20H36.5C37.3284 20 38 20.6716 38 21.5C38 22.3284 37.3284 23 36.5 23H18.5C17.6716 23 17 22.3284 17 21.5ZM17 27.5C17 26.6716 17.6716 26 18.5 26H36.5C37.3284 26 38 26.6716 38 27.5C38 28.3284 37.3284 29 36.5 29H18.5C17.6716 29 17 28.3284 17 27.5ZM18.5 32C17.6716 32 17 32.6716 17 33.5C17 34.3284 17.6716 35 18.5 35H36.5C37.3284 35 38 34.3284 38 33.5C38 32.6716 37.3284 32 36.5 32H18.5Z" fill="#B1B7CC"/>
</g>
<rect x="2" y="2" width="51" height="51" rx="9" stroke="#16171A" stroke-width="3"/>
</g>
<defs>
<filter id="filter0_dii_3_6" x="0.5" y="0.5" width="54" height="55.5" filterUnits="userSpaceOnUse" color-interpolation-filters="sRGB">
<feFlood flood-opacity="0" result="BackgroundImageFix"/>
<feColorMatrix in="SourceAlpha" type="matrix" values="0 0 0 0 0 0 0 0 0 0 0 0 0 0 0 0 0 0 127 0" result="hardAlpha"/>
<feOffset dy="1.5"/>
<feComposite in2="hardAlpha" operator="out"/>
<feColorMatrix type="matrix" values="0 0 0 0 1 0 0 0 0 1 0 0 0 0 1 0 0 0 0.8 0"/>
<feBlend mode="overlay" in2="BackgroundImageFix" result="effect1_dropShadow_3_6"/>
<feBlend mode="normal" in="SourceGraphic" in2="effect1_dropShadow_3_6" result="shape"/>
<feColorMatrix in="SourceAlpha" type="matrix" values="0 0 0 0 0 0 0 0 0 0 0 0 0 0 0 0 0 0 127 0" result="hardAlpha"/>
<feMorphology radius="4.5" operator="erode" in="SourceAlpha" result="effect2_innerShadow_3_6"/>
<feOffset/>
<feComposite in2="hardAlpha" operator="arithmetic" k2="-1" k3="1"/>
<feColorMatrix type="matrix" values="0 0 0 0 0.232465 0 0 0 0 0.237947 0 0 0 0 0.270833 0 0 0 0.75 0"/>
<feBlend mode="normal" in2="shape" result="effect2_innerShadow_3_6"/>
<feColorMatrix in="SourceAlpha" type="matrix" values="0 0 0 0 0 0 0 0 0 0 0 0 0 0 0 0 0 0 127 0" result="hardAlpha"/>
<feMorphology radius="3" operator="erode" in="SourceAlpha" result="effect3_innerShadow_3_6"/>
<feOffset dy="1.5"/>
<feComposite in2="hardAlpha" operator="arithmetic" k2="-1" k3="1"/>
<feColorMatrix type="matrix" values="0 0 0 0 0.280312 0 0 0 0 0.286696 0 0 0 0 0.325 0 0 0 1 0"/>
<feBlend mode="normal" in2="effect2_innerShadow_3_6" result="effect3_innerShadow_3_6"/>
</filter>
<filter id="filter1_d_3_6" x="15.5" y="16.25" width="24" height="18.75" filterUnits="userSpaceOnUse" color-interpolation-filters="sRGB">
<feFlood flood-opacity="0" result="BackgroundImageFix"/>
<feColorMatrix in="SourceAlpha" type="matrix" values="0 0 0 0 0 0 0 0 0 0 0 0 0 0 0 0 0 0 127 0" result="hardAlpha"/>
<feOffset dy="-2.25"/>
<feGaussianBlur stdDeviation="0.75"/>
<feComposite in2="hardAlpha" operator="out"/>
<feColorMatrix type="matrix" values="0 0 0 0 0 0 0 0 0 0 0 0 0 0 0 0 0 0 0.48 0"/>
<feBlend mode="normal" in2="BackgroundImageFix" result="effect1_dropShadow_3_6"/>
<feBlend mode="normal" in="SourceGraphic" in2="effect1_dropShadow_3_6" result="shape"/>
</filter>
<linearGradient id="paint0_linear_3_6" x1="27.5" y1="0.5" x2="27.5" y2="54.5" gradientUnits="userSpaceOnUse">
<stop stop-color="#383941"/>
<stop offset="0.987195" stop-color="#2E2F35"/>
</linearGradient>
</defs>
</svg>
