<svg width="66" height="72" viewBox="0 0 66 72" fill="none" xmlns="http://www.w3.org/2000/svg">
<path d="M59.2791 29.925C57.7736 29.925 56.4277 28.9088 55.8916 27.3742C55.7351 26.9262 55.5667 26.4845 55.3869 26.0497C54.7657 24.5465 55.0537 22.7829 56.1224 21.617L56.1239 21.6155C57.5404 20.0701 57.5404 17.5648 56.1239 16.0196L53.378 13.0241C52.6698 12.2515 51.7414 11.8651 50.8132 11.8652H45.6569C44.7287 11.8652 43.8004 12.2515 43.0922 13.0241L43.0907 13.0258C43.023 13.0996 42.9531 13.1698 42.8813 13.2367C41.5246 12.6278 40.6311 11.1895 40.6311 9.58219C40.6313 7.39659 39.0073 5.625 37.0041 5.625H33.1209C32.9036 5.625 32.6911 5.64708 32.4844 5.68702C32.2776 5.64708 32.0652 5.625 31.8478 5.625H27.9647C25.9615 5.625 24.3375 7.39659 24.3375 9.58191C24.3375 11.1892 23.4441 12.6276 22.0873 13.2365C22.0155 13.1695 21.9456 13.0994 21.878 13.0255L21.8764 13.0238C21.1682 12.2512 20.24 11.865 19.3117 11.865H14.1555C13.2272 11.865 12.2989 12.2512 11.5906 13.0238L8.84477 16.0193C7.42822 17.5646 7.42822 20.07 8.84477 21.6152L8.84619 21.6167C9.91495 22.7827 10.2029 24.5462 9.58173 26.0494C9.40191 26.4843 9.23356 26.9259 9.07706 27.3739C8.54094 28.9086 7.19503 29.9247 5.68954 29.9247C3.68646 29.925 2.0625 31.6966 2.0625 33.8819V38.1181C2.0625 40.3034 3.68646 42.075 5.68966 42.075C7.19516 42.075 8.54107 43.0912 9.07719 44.6258C9.23368 45.0738 9.40204 45.5155 9.58186 45.9503C10.2031 47.4535 9.91508 49.2171 8.84632 50.383L8.8449 50.3845C7.42835 51.9299 7.42835 54.4352 8.8449 55.9804L11.5907 58.9759C12.2989 59.7485 13.2273 60.1348 14.1556 60.1348H19.3118C20.2401 60.1348 21.1683 59.7485 21.8766 58.9759L21.8781 58.9742C21.9458 58.9004 22.0156 58.8302 22.0874 58.7633C23.4442 59.3722 24.3376 60.8105 24.3376 62.4178C24.3376 64.6031 25.9616 66.3747 27.9648 66.3747H31.848C32.0653 66.3747 32.2777 66.3526 32.4845 66.3127C32.6913 66.3526 32.9037 66.3747 33.121 66.3747H37.0042C39.0074 66.3747 40.6314 64.6031 40.6314 62.4178C40.6314 60.8105 41.5248 59.3723 42.8816 58.7633C42.9534 58.8302 43.0232 58.9004 43.0909 58.9742L43.0925 58.9759C43.8007 59.7485 44.7289 60.1348 45.6572 60.1348H50.8134C51.7417 60.1348 52.6699 59.7485 53.3783 58.9759L56.1241 55.9804C57.5407 54.4351 57.5407 51.9297 56.1241 50.3845L56.1227 50.383C55.0539 49.2171 54.766 47.4535 55.3872 45.9503C55.567 45.5154 55.7353 45.0738 55.8918 44.6258C56.4279 43.0912 57.7739 42.075 59.2794 42.075C61.2826 42.075 62.9065 40.3034 62.9065 38.1181V33.8819C62.9063 31.6966 61.2823 29.925 59.2791 29.925Z" fill="#596073"/>
<path d="M57.75 38.1181V33.8819C57.75 31.6966 56.126 29.925 54.1228 29.925C52.6173 29.925 51.2714 28.9088 50.7353 27.3742C50.5788 26.9262 50.4105 26.4845 50.2306 26.0497C49.6094 24.5465 49.8974 22.7829 50.9662 21.617L50.9676 21.6155C52.3842 20.0701 52.3842 17.5648 50.9676 16.0196L48.2218 13.0241C46.8052 11.4788 44.5086 11.4788 43.0922 13.0241L43.0907 13.0258C42.0219 14.1917 40.4053 14.5059 39.0274 13.8282C38.6287 13.6322 38.2239 13.4485 37.8132 13.2777C36.4065 12.6928 35.475 11.2245 35.475 9.58219C35.475 7.39659 33.851 5.625 31.8478 5.625H27.9647C25.9615 5.625 24.3375 7.39659 24.3375 9.58191C24.3375 11.2243 23.406 12.6925 21.9993 13.2774C21.5886 13.4481 21.1837 13.6318 20.7851 13.8279C19.4072 14.5056 17.7906 14.1915 16.7218 13.0255L16.7203 13.0238C15.3038 11.4787 13.0072 11.4787 11.5907 13.0238L8.8449 16.0193C7.42835 17.5646 7.42835 20.07 8.8449 21.6152L8.84632 21.6167C9.91508 22.7827 10.2031 24.5462 9.58186 26.0494C9.40216 26.4843 9.23368 26.9259 9.07719 27.3739C8.54107 28.9086 7.19516 29.9247 5.68966 29.9247C3.68646 29.925 2.0625 31.6966 2.0625 33.8819V38.1181C2.0625 40.3034 3.68646 42.075 5.68966 42.075C7.19516 42.075 8.54107 43.0912 9.07719 44.6258C9.23368 45.0738 9.40204 45.5155 9.58186 45.9503C10.2031 47.4535 9.91508 49.2171 8.84632 50.383L8.8449 50.3845C7.42835 51.9299 7.42835 54.4352 8.8449 55.9804L11.5907 58.9759C13.0073 60.5212 15.3039 60.5212 16.7203 58.9759L16.7218 58.9742C17.7906 57.8083 19.4072 57.4941 20.7851 58.1718C21.1838 58.3678 21.5886 58.5515 21.9993 58.7223C23.406 59.3072 24.3375 60.7755 24.3375 62.4178C24.3375 64.6031 25.9615 66.3747 27.9647 66.3747H31.8478C33.851 66.3747 35.475 64.6031 35.475 62.4178C35.475 60.7755 36.4065 59.3072 37.8132 58.7223C38.2239 58.5516 38.6288 58.368 39.0274 58.1718C40.4053 57.4941 42.0219 57.8083 43.0907 58.9742L43.0922 58.9759C44.5087 60.5211 46.8053 60.5211 48.2218 58.9759L50.9676 55.9804C52.3842 54.4351 52.3842 51.9297 50.9676 50.3845L50.9662 50.383C49.8974 49.2171 49.6094 47.4535 50.2306 45.9503C50.4103 45.5154 50.5788 45.0738 50.7353 44.6258C51.2714 43.0912 52.6173 42.075 54.1228 42.075C56.126 42.075 57.75 40.3034 57.75 38.1181Z" fill="#41444F"/>
<path d="M29.9062 57.375C40.7276 57.375 49.5 47.8051 49.5 36C49.5 24.1949 40.7276 14.625 29.9062 14.625C19.0849 14.625 10.3125 24.1949 10.3125 36C10.3125 47.8051 19.0849 57.375 29.9062 57.375Z" fill="#B5BCCF"/>
<path d="M29.9062 40.5C32.1844 40.5 34.0312 38.4853 34.0312 36C34.0312 33.5147 32.1844 31.5 29.9062 31.5C27.6281 31.5 25.7812 33.5147 25.7812 36C25.7812 38.4853 27.6281 40.5 29.9062 40.5Z" fill="#596073"/>
<path d="M29.9062 45C25.6268 45 21.5874 44.1433 18.5321 42.5879C15.2267 40.9051 13.4062 38.5656 13.4062 36H15.4688C15.4688 37.6176 16.9032 39.2757 19.4043 40.5491C22.1922 41.9683 25.9219 42.75 29.9062 42.75C33.8906 42.75 37.6203 41.9683 40.4082 40.5491C42.9093 39.2757 44.3438 37.6176 44.3438 36H46.4062C46.4062 38.5656 44.5858 40.9051 41.2804 42.5879C38.2251 44.1433 34.1856 45 29.9062 45Z" fill="white" fill-opacity="0.43922"/>
<path d="M37.6416 51.7393C37.2851 51.7393 36.9386 51.5375 36.7476 51.1766C36.4627 50.6386 36.6318 49.9505 37.125 49.6399C38.4092 48.8311 39.0082 46.6468 38.7684 43.6473C38.5013 40.3036 37.2569 36.3892 35.2647 32.6251C33.2725 28.8608 30.7872 25.7281 28.2664 23.8038C26.0052 22.0775 23.9717 21.5514 22.6874 22.3602C22.1943 22.6707 21.5634 22.4866 21.2787 21.9484C20.9939 21.4104 21.1629 20.7223 21.6561 20.4117C23.6926 19.1289 26.4603 19.6789 29.4489 21.9604C32.2113 24.0692 34.911 27.4571 37.0507 31.5001C39.1906 35.5431 40.5302 39.7877 40.8232 43.452C41.1399 47.4162 40.1928 50.3057 38.1562 51.5885C37.9938 51.6906 37.8164 51.7393 37.6416 51.7393Z" fill="white" fill-opacity="0.43922"/>
<path d="M22.171 51.7394C21.996 51.7394 21.8187 51.6907 21.6562 51.5885C19.6196 50.3057 18.6724 47.4161 18.9893 43.4519C19.2822 39.7877 20.6219 35.543 22.7615 31.5001C24.9012 27.4571 27.6009 24.0692 30.3635 21.9603C33.3523 19.6787 36.1198 19.129 38.1562 20.4116C38.6494 20.7223 38.8186 21.4104 38.5337 21.9484C38.2489 22.4866 37.6181 22.6708 37.125 22.3601C35.8408 21.5513 33.8073 22.0775 31.5459 23.8038C29.0252 25.7281 26.5399 28.8608 24.5476 32.6251C22.5555 36.3893 21.3112 40.3038 21.0439 43.6472C20.8042 46.6469 21.4032 48.8311 22.6875 49.6398C23.1807 49.9505 23.3497 50.6386 23.0649 51.1766C22.8739 51.5376 22.5273 51.7394 22.171 51.7394Z" fill="white" fill-opacity="0.43922"/>
<path d="M25.7812 36C25.7812 37.2427 26.7046 38.25 27.8438 38.25C28.9829 38.25 29.9062 37.2427 29.9062 36V31.5C27.6281 31.5 25.7812 33.5147 25.7812 36Z" fill="#41444F"/>
<path d="M45.375 37.125C44.8055 37.125 44.3438 36.6213 44.3438 36C44.3438 34.3824 42.9093 32.7243 40.4082 31.4509C37.6203 30.0317 33.8906 29.25 29.9062 29.25C25.9219 29.25 22.1922 30.0317 19.4043 31.4509C16.9032 32.7243 15.4688 34.3824 15.4688 36C15.4688 36.6213 15.007 37.125 14.4375 37.125C13.868 37.125 13.4062 36.6213 13.4062 36C13.4062 33.4344 15.2267 31.0949 18.5321 29.4121C21.5874 27.8567 25.6268 27 29.9062 27C34.1856 27 38.2251 27.8567 41.2804 29.4121C44.5858 31.0949 46.4062 33.4344 46.4062 36C46.4062 36.6213 45.9445 37.125 45.375 37.125Z" fill="white"/>
<path d="M35.7456 52.2663C34.1359 52.2663 32.2959 51.5151 30.3635 50.0398C27.601 47.931 24.9012 44.543 22.7615 40.5001C20.6218 36.4571 19.2822 32.2125 18.9893 28.5482C18.6724 24.584 19.6196 21.6943 21.6562 20.4116C22.1496 20.1013 22.7802 20.2854 23.0649 20.8234C23.3497 21.3614 23.1807 22.0495 22.6875 22.3601C21.4033 23.1689 20.8043 25.3532 21.0439 28.3527C21.3112 31.6964 22.5555 35.6108 24.5476 39.3749C26.5399 43.1392 29.0252 46.2719 31.5459 48.1962C33.8073 49.9225 35.841 50.4489 37.125 49.6398C37.6184 49.3291 38.2491 49.5136 38.5337 50.0516C38.8186 50.5896 38.6494 51.2777 38.1562 51.5883C37.4366 52.0419 36.6253 52.2663 35.7456 52.2663Z" fill="white"/>
<path d="M24.0669 52.2662C23.187 52.2662 22.3762 52.0418 21.6563 51.5884C21.1631 51.2778 20.9941 50.5897 21.2788 50.0517C21.5636 49.5135 22.1943 49.3292 22.6875 49.6399C23.9718 50.449 26.005 49.9227 28.2666 48.1963C30.7873 46.272 33.2725 43.1393 35.2648 39.375C37.257 35.6108 38.5013 31.6963 38.7686 28.3528C39.0083 25.3533 38.4093 23.169 37.1251 22.3602C36.6319 22.0496 36.4628 21.3615 36.7477 20.8235C37.0323 20.2853 37.6631 20.101 38.1564 20.4117C40.1931 21.6945 41.1401 24.5841 40.8233 28.5483C40.5305 32.2126 39.1907 36.4572 37.0509 40.5002C34.9112 44.5431 32.2115 47.9311 29.449 50.0399C27.5167 51.5149 25.6766 52.2662 24.0669 52.2662Z" fill="white"/>
</svg>
