<svg width="174" height="175" viewBox="0 0 174 175" fill="none" xmlns="http://www.w3.org/2000/svg">
<g filter="url(#filter0_di_3_30)">
<rect x="34.5" y="35" width="105" height="105" rx="52.5" fill="#3B398D"/>
<g style="mix-blend-mode:overlay" filter="url(#filter1_f_3_30)">
<ellipse cx="87" cy="114.5" rx="30" ry="18" fill="url(#paint0_linear_3_30)"/>
</g>
<g style="mix-blend-mode:overlay" filter="url(#filter2_i_3_30)">
<ellipse cx="87" cy="72.5" rx="39" ry="30" fill="url(#paint1_linear_3_30)"/>
</g>
<g clip-path="url(#clip0_3_30)">
<path fill-rule="evenodd" clip-rule="evenodd" d="M87 69.5C86.1716 69.5 85.5 70.1716 85.5 71V90.5C85.5 91.3284 86.1716 92 87 92C87.8284 92 88.5 91.3284 88.5 90.5V71C88.5 70.1716 87.8284 69.5 87 69.5ZM77.4541 79.454C78.0399 78.8682 78.0399 77.9185 77.4541 77.3327C76.8683 76.7469 75.9186 76.7469 75.3328 77.3327C73.0252 79.6402 71.4537 82.5803 70.8171 85.781C70.1804 88.9816 70.5071 92.2992 71.756 95.3142C73.0048 98.3292 75.1197 100.906 77.8331 102.719C80.5465 104.532 83.7366 105.5 87 105.5C90.2634 105.5 93.4535 104.532 96.1669 102.719C98.8803 100.906 100.995 98.3293 102.244 95.3143C103.493 92.2993 103.82 88.9817 103.183 85.781C102.546 82.5803 100.975 79.6403 98.6673 77.3327C98.0815 76.747 97.1317 76.747 96.5459 77.3327C95.9602 77.9185 95.9602 78.8683 96.5459 79.4541C98.434 81.3421 99.7197 83.7475 100.241 86.3663C100.762 88.985 100.494 91.6994 99.4724 94.1662C98.4506 96.633 96.7203 98.7415 94.5002 100.225C92.2801 101.708 89.67 102.5 87 102.5C84.3299 102.5 81.7198 101.708 79.4998 100.225C77.2797 98.7414 75.5494 96.633 74.5276 94.1662C73.5058 91.6994 73.2385 88.985 73.7594 86.3662C74.2803 83.7475 75.5661 81.342 77.4541 79.454Z" fill="white"/>
</g>
<rect x="36" y="36.5" width="102" height="102" rx="51" stroke="#101012" stroke-width="3"/>
</g>
<defs>
<filter id="filter0_di_3_30" x="0" y="0.5" width="174" height="174" filterUnits="userSpaceOnUse" color-interpolation-filters="sRGB">
<feFlood flood-opacity="0" result="BackgroundImageFix"/>
<feColorMatrix in="SourceAlpha" type="matrix" values="0 0 0 0 0 0 0 0 0 0 0 0 0 0 0 0 0 0 127 0" result="hardAlpha"/>
<feOffset/>
<feGaussianBlur stdDeviation="17.25"/>
<feComposite in2="hardAlpha" operator="out"/>
<feColorMatrix type="matrix" values="0 0 0 0 0.231373 0 0 0 0 0.223529 0 0 0 0 0.552941 0 0 0 0.81 0"/>
<feBlend mode="normal" in2="BackgroundImageFix" result="effect1_dropShadow_3_30"/>
<feBlend mode="normal" in="SourceGraphic" in2="effect1_dropShadow_3_30" result="shape"/>
<feColorMatrix in="SourceAlpha" type="matrix" values="0 0 0 0 0 0 0 0 0 0 0 0 0 0 0 0 0 0 127 0" result="hardAlpha"/>
<feMorphology radius="4.5" operator="erode" in="SourceAlpha" result="effect2_innerShadow_3_30"/>
<feOffset/>
<feComposite in2="hardAlpha" operator="arithmetic" k2="-1" k3="1"/>
<feColorMatrix type="matrix" values="0 0 0 0 1 0 0 0 0 1 0 0 0 0 1 0 0 0 0.2 0"/>
<feBlend mode="overlay" in2="shape" result="effect2_innerShadow_3_30"/>
</filter>
<filter id="filter1_f_3_30" x="52.5" y="92" width="69" height="45" filterUnits="userSpaceOnUse" color-interpolation-filters="sRGB">
<feFlood flood-opacity="0" result="BackgroundImageFix"/>
<feBlend mode="normal" in="SourceGraphic" in2="BackgroundImageFix" result="shape"/>
<feGaussianBlur stdDeviation="2.25" result="effect1_foregroundBlur_3_30"/>
</filter>
<filter id="filter2_i_3_30" x="48" y="42.5" width="78" height="60" filterUnits="userSpaceOnUse" color-interpolation-filters="sRGB">
<feFlood flood-opacity="0" result="BackgroundImageFix"/>
<feBlend mode="normal" in="SourceGraphic" in2="BackgroundImageFix" result="shape"/>
<feColorMatrix in="SourceAlpha" type="matrix" values="0 0 0 0 0 0 0 0 0 0 0 0 0 0 0 0 0 0 127 0" result="hardAlpha"/>
<feOffset dy="3"/>
<feComposite in2="hardAlpha" operator="arithmetic" k2="-1" k3="1"/>
<feColorMatrix type="matrix" values="0 0 0 0 1 0 0 0 0 1 0 0 0 0 1 0 0 0 0.57 0"/>
<feBlend mode="normal" in2="shape" result="effect1_innerShadow_3_30"/>
</filter>
<linearGradient id="paint0_linear_3_30" x1="87" y1="96.5" x2="87" y2="132.5" gradientUnits="userSpaceOnUse">
<stop stop-color="#565A66" stop-opacity="0"/>
<stop offset="0.0001" stop-color="white" stop-opacity="0"/>
<stop offset="1" stop-color="white" stop-opacity="0.63"/>
</linearGradient>
<linearGradient id="paint1_linear_3_30" x1="87" y1="42.5" x2="87" y2="102.5" gradientUnits="userSpaceOnUse">
<stop stop-color="#686B76"/>
<stop offset="0.0001" stop-color="white"/>
<stop offset="0.830953" stop-color="white" stop-opacity="0"/>
</linearGradient>
<clipPath id="clip0_3_30">
<rect width="33" height="36" fill="white" transform="translate(70.5 69.5)"/>
</clipPath>
</defs>
</svg>
